<?xml version="1.0" encoding="UTF-8"?><svg id="a" xmlns="http://www.w3.org/2000/svg" xmlns:xlink="http://www.w3.org/1999/xlink" viewBox="0 0 885.65 54.6"><defs><style>.c{fill:url(#b);}</style><linearGradient id="b" x1="0" y1="27.3" x2="885.65" y2="27.3" gradientTransform="matrix(1, 0, 0, 1, 0, 0)" gradientUnits="userSpaceOnUse"><stop offset="0" stop-color="#ab46a4"/><stop offset=".5" stop-color="#5a9ada"/><stop offset="1" stop-color="#5cbcb7"/></linearGradient></defs><path class="c" d="M35.58,8.28h-13.74V43.92H13.68V8.28H0V1.92H35.58v6.36Zm5.04,34.26c-2.48-1.28-4.4-3.14-5.76-5.58-1.36-2.44-2.04-5.34-2.04-8.7s.68-6.25,2.04-8.67c1.36-2.42,3.28-4.26,5.76-5.52,2.48-1.26,5.38-1.89,8.7-1.89s6.23,.64,8.73,1.92c2.5,1.28,4.43,3.13,5.79,5.55,1.36,2.42,2.04,5.29,2.04,8.61s-.68,6.26-2.04,8.7c-1.36,2.44-3.29,4.3-5.79,5.58-2.5,1.28-5.41,1.92-8.73,1.92s-6.22-.64-8.7-1.92Zm15.21-6.57c1.54-1.78,2.31-4.31,2.31-7.59s-.77-5.88-2.31-7.68c-1.54-1.8-3.71-2.7-6.51-2.7s-4.91,.9-6.45,2.7c-1.54,1.8-2.31,4.36-2.31,7.68s.77,5.81,2.31,7.59c1.54,1.78,3.69,2.67,6.45,2.67s4.97-.89,6.51-2.67Zm45.45-18.09l-4.68-.3c.76,.64,1.41,1.47,1.95,2.49s.81,2.27,.81,3.75c0,2.92-1.23,5.27-3.69,7.05-2.46,1.78-5.93,2.67-10.41,2.67-2.6,0-4.88-.3-6.84-.9-.8,.52-1.2,1.24-1.2,2.16,.04,1.12,.7,1.86,1.98,2.22,1.28,.36,3.24,.54,5.88,.54h4.8c7.2,0,10.8,2.52,10.8,7.56,0,6.32-5.14,9.48-15.42,9.48-4.36,0-7.97-.57-10.83-1.71-2.86-1.14-4.29-3.19-4.29-6.15,0-2.36,1.3-4.2,3.9-5.52-2.12-1.24-3.18-2.98-3.18-5.22,0-2.4,1.26-4.14,3.78-5.22-2.36-1.84-3.54-4.46-3.54-7.86s1.24-6.19,3.72-8.01c2.48-1.82,5.96-2.73,10.44-2.73,2.04,0,3.8,.18,5.28,.54h10.74v5.16Zm-23.16,24.66c-1,.88-1.5,1.9-1.5,3.06,0,1.52,.76,2.58,2.28,3.18,1.52,.6,3.7,.9,6.54,.9,2.68,0,4.75-.27,6.21-.81,1.46-.54,2.19-1.55,2.19-3.03,0-1-.36-1.7-1.08-2.1-.72-.4-1.9-.6-3.54-.6h-3.36c-3.24,0-5.82-.2-7.74-.6Zm12.03-15.6c1.18-.88,1.77-2.22,1.77-4.02s-.6-3.26-1.8-4.14c-1.2-.88-2.82-1.32-4.86-1.32s-3.71,.44-4.89,1.32c-1.18,.88-1.77,2.26-1.77,4.14s.6,3.24,1.8,4.08c1.2,.84,2.82,1.26,4.86,1.26s3.71-.44,4.89-1.32Zm44.88,2.49c-.06,.62-.11,1.05-.15,1.29h-22.98c.04,2.72,.98,4.76,2.82,6.12,1.84,1.36,4.34,2.04,7.5,2.04,1.8,0,3.73-.26,5.79-.78,2.06-.52,3.85-1.12,5.37-1.8l.48,6.06c-3.88,1.4-8.04,2.1-12.48,2.1-5.56,0-9.82-1.4-12.78-4.2-2.96-2.8-4.44-6.74-4.44-11.82,0-3.24,.64-6.09,1.92-8.55,1.28-2.46,3.14-4.36,5.58-5.7,2.44-1.34,5.34-2.01,8.7-2.01,4.6,0,8.21,1.35,10.83,4.05,2.62,2.7,3.93,6.37,3.93,11.01,0,.84-.03,1.57-.09,2.19Zm-6.99-3.57c0-2.44-.65-4.41-1.95-5.91-1.3-1.5-3.13-2.25-5.49-2.25-4.92,0-7.76,2.72-8.52,8.16h15.96Zm21.96-13.14h10.5v5.4h-10.5v14.94c0,2.08,.41,3.49,1.23,4.23,.82,.74,2.07,1.11,3.75,1.11,1.32,0,3.14-.5,5.46-1.5l.24,6.3c-1.04,.4-2.35,.71-3.93,.93-1.58,.22-3.05,.33-4.41,.33-3.16,0-5.58-.79-7.26-2.37-1.68-1.58-2.52-4.35-2.52-8.31v-15.66h-4.92v-5.4h4.92l.9-9h6.54V12.72Zm44.52,11.34v19.86h-7.62V24.96c0-2.32-.54-4.06-1.62-5.22-1.08-1.16-2.58-1.74-4.5-1.74-2.52,0-4.44,.92-5.76,2.76-1.32,1.84-1.98,4-1.98,6.48v16.68h-7.56V0h7.56V17.22c1.16-1.64,2.57-2.89,4.23-3.75,1.66-.86,3.65-1.29,5.97-1.29,7.52,0,11.28,3.96,11.28,11.88Zm36.57,5.37c-.06,.62-.11,1.05-.15,1.29h-22.98c.04,2.72,.98,4.76,2.82,6.12,1.84,1.36,4.34,2.04,7.5,2.04,1.8,0,3.73-.26,5.79-.78,2.06-.52,3.85-1.12,5.37-1.8l.48,6.06c-3.88,1.4-8.04,2.1-12.48,2.1-5.56,0-9.82-1.4-12.78-4.2-2.96-2.8-4.44-6.74-4.44-11.82,0-3.24,.64-6.09,1.92-8.55,1.28-2.46,3.14-4.36,5.58-5.7,2.44-1.34,5.34-2.01,8.7-2.01,4.6,0,8.21,1.35,10.83,4.05,2.62,2.7,3.93,6.37,3.93,11.01,0,.84-.03,1.57-.09,2.19Zm-6.99-3.57c0-2.44-.65-4.41-1.95-5.91-1.3-1.5-3.13-2.25-5.49-2.25-4.92,0-7.76,2.72-8.52,8.16h15.96Zm31.56-13.14l-.12,7.32c-.64-.16-1.48-.24-2.52-.24-2.8,0-4.9,1.05-6.3,3.15-1.4,2.1-2.1,4.71-2.1,7.83v13.14h-7.56V12.72h6.3l.6,6.72c.68-1.88,1.81-3.5,3.39-4.86,1.58-1.36,3.61-2.04,6.09-2.04,.72,0,1.46,.06,2.22,.18Zm8.13,24.6c1.02,1.16,1.53,2.78,1.53,4.86,0,2.36-.69,4.42-2.07,6.18-1.38,1.76-3.03,3.14-4.95,4.14l-1.86-2.82c2.96-1.84,4.52-4.02,4.68-6.54-.4,.64-1.06,.96-1.98,.96-1.28,0-2.24-.35-2.88-1.05-.64-.7-.96-1.69-.96-2.97,0-1.4,.41-2.5,1.23-3.3,.82-.8,1.99-1.2,3.51-1.2s2.73,.58,3.75,1.74Zm65.67-24.6l-8.64,31.2h-8.58l-6.42-20.64h-.12l-6.42,20.64h-8.58l-8.7-31.2h7.68l6,23.04h.18l6.54-22.74h7.02l7.08,22.68h.18l5.94-22.98h6.84Zm33.21,16.71c-.06,.62-.11,1.05-.15,1.29h-22.98c.04,2.72,.98,4.76,2.82,6.12,1.84,1.36,4.34,2.04,7.5,2.04,1.8,0,3.73-.26,5.79-.78,2.06-.52,3.85-1.12,5.37-1.8l.48,6.06c-3.88,1.4-8.04,2.1-12.48,2.1-5.56,0-9.82-1.4-12.78-4.2-2.96-2.8-4.44-6.74-4.44-11.82,0-3.24,.64-6.09,1.92-8.55,1.28-2.46,3.14-4.36,5.58-5.7,2.44-1.34,5.34-2.01,8.7-2.01,4.6,0,8.21,1.35,10.83,4.05,2.62,2.7,3.93,6.37,3.93,11.01,0,.84-.03,1.57-.09,2.19Zm-6.99-3.57c0-2.44-.65-4.41-1.95-5.91-1.3-1.5-3.13-2.25-5.49-2.25-4.92,0-7.76,2.72-8.52,8.16h15.96Zm71.07-10.86c1.98,1.88,2.97,4.98,2.97,9.3v19.62h-7.62V24.42c0-2.04-.45-3.62-1.35-4.74-.9-1.12-2.29-1.68-4.17-1.68-2.24,0-3.86,.79-4.86,2.37-1,1.58-1.5,3.41-1.5,5.49v18.06h-7.56V24.24c0-1.88-.49-3.39-1.47-4.53-.98-1.14-2.35-1.71-4.11-1.71-2.08,0-3.66,.68-4.74,2.04-1.08,1.36-1.62,3.14-1.62,5.34v18.54h-7.56V12.72h6.6l.42,4.74c.88-1.6,2.09-2.88,3.63-3.84,1.54-.96,3.37-1.44,5.49-1.44s3.83,.48,5.37,1.44c1.54,.96,2.69,2.52,3.45,4.68,2.36-4.08,5.98-6.12,10.86-6.12,3.2,0,5.79,.94,7.77,2.82Zm42.57,28.56c-2.32,.44-4.24,.66-5.76,.66-1.92,0-3.44-.37-4.56-1.11-1.12-.74-1.78-1.79-1.98-3.15-.96,1.36-2.34,2.45-4.14,3.27-1.8,.82-4.02,1.23-6.66,1.23-3.6,0-6.39-.79-8.37-2.37-1.98-1.58-2.97-3.95-2.97-7.11,0-3.64,1.25-6.19,3.75-7.65,2.5-1.46,6.13-2.19,10.89-2.19,1.96,0,4.24,.1,6.84,.3v-2.46c0-1.6-.51-2.82-1.53-3.66-1.02-.84-2.81-1.26-5.37-1.26-1.56,0-3.48,.21-5.76,.63-2.28,.42-4.26,.91-5.94,1.47l-.6-6.24c4.2-1.16,8.62-1.74,13.26-1.74s8.01,.77,10.23,2.31c2.22,1.54,3.33,4.31,3.33,8.31v12.96c0,.96,.2,1.58,.6,1.86,.4,.28,.94,.42,1.62,.42,.64,0,1.64-.18,3-.54l.12,6.06Zm-15.21-6.06c1.5-1.12,2.25-2.72,2.25-4.8v-2.58c-2.08-.2-3.98-.3-5.7-.3-2.84,0-4.88,.39-6.12,1.17-1.24,.78-1.86,1.97-1.86,3.57,0,3.08,1.9,4.62,5.7,4.62,2.32,0,4.23-.56,5.73-1.68Zm36.45-12.66l11.34,19.08h-8.46l-7.92-13.74-4.98,5.16v8.58h-7.56V0h7.56V26.7l13.2-13.98h8.28l-11.46,12.12Zm43.23,4.59c-.06,.62-.11,1.05-.15,1.29h-22.98c.04,2.72,.98,4.76,2.82,6.12,1.84,1.36,4.34,2.04,7.5,2.04,1.8,0,3.73-.26,5.79-.78,2.06-.52,3.85-1.12,5.37-1.8l.48,6.06c-3.88,1.4-8.04,2.1-12.48,2.1-5.56,0-9.82-1.4-12.78-4.2-2.96-2.8-4.44-6.74-4.44-11.82,0-3.24,.64-6.09,1.92-8.55,1.28-2.46,3.14-4.36,5.58-5.7,2.44-1.34,5.34-2.01,8.7-2.01,4.6,0,8.21,1.35,10.83,4.05,2.62,2.7,3.93,6.37,3.93,11.01,0,.84-.03,1.57-.09,2.19Zm-6.99-3.57c0-2.44-.65-4.41-1.95-5.91-1.3-1.5-3.13-2.25-5.49-2.25-4.92,0-7.76,2.72-8.52,8.16h15.96Zm33.99,16.74c-2.62-1.24-4.66-3.08-6.12-5.52-1.46-2.44-2.19-5.36-2.19-8.76s.73-6.32,2.19-8.76c1.46-2.44,3.5-4.28,6.12-5.52,2.62-1.24,5.69-1.86,9.21-1.86,1.72,0,3.43,.14,5.13,.42,1.7,.28,3.19,.66,4.47,1.14l-.6,6.18c-1.08-.52-2.33-.97-3.75-1.35-1.42-.38-2.85-.57-4.29-.57-3.6,0-6.29,.96-8.07,2.88-1.78,1.92-2.67,4.4-2.67,7.44s.9,5.52,2.7,7.44,4.5,2.88,8.1,2.88c2.48,0,5.14-.66,7.98-1.98l.48,6c-2.88,1.2-6.04,1.8-9.48,1.8s-6.59-.62-9.21-1.86Zm29.73-.06c-2.48-1.28-4.4-3.14-5.76-5.58-1.36-2.44-2.04-5.34-2.04-8.7s.68-6.25,2.04-8.67c1.36-2.42,3.28-4.26,5.76-5.52,2.48-1.26,5.38-1.89,8.7-1.89s6.23,.64,8.73,1.92c2.5,1.28,4.43,3.13,5.79,5.55,1.36,2.42,2.04,5.29,2.04,8.61s-.68,6.26-2.04,8.7c-1.36,2.44-3.29,4.3-5.79,5.58-2.5,1.28-5.41,1.92-8.73,1.92s-6.22-.64-8.7-1.92Zm15.21-6.57c1.54-1.78,2.31-4.31,2.31-7.59s-.77-5.88-2.31-7.68c-1.54-1.8-3.71-2.7-6.51-2.7s-4.91,.9-6.45,2.7c-1.54,1.8-2.31,4.36-2.31,7.68s.77,5.81,2.31,7.59c1.54,1.78,3.69,2.67,6.45,2.67s4.97-.89,6.51-2.67ZM652.32,0V43.92h-7.08l-.36-4.32c-1.16,1.64-2.68,2.86-4.56,3.66-1.88,.8-3.92,1.2-6.12,1.2-3.12,0-5.75-.73-7.89-2.19-2.14-1.46-3.73-3.4-4.77-5.82-1.04-2.42-1.56-5.09-1.56-8.01s.54-5.79,1.62-8.25,2.69-4.41,4.83-5.85,4.75-2.16,7.83-2.16c2.44,0,4.55,.43,6.33,1.29,1.78,.86,3.17,2.01,4.17,3.45V0h7.56Zm-9.75,35.88c1.54-1.84,2.31-4.32,2.31-7.44s-.76-5.79-2.28-7.65c-1.52-1.86-3.58-2.79-6.18-2.79-2.76,0-4.9,.91-6.42,2.73-1.52,1.82-2.28,4.39-2.28,7.71s.77,5.7,2.31,7.5c1.54,1.8,3.67,2.7,6.39,2.7,2.56,0,4.61-.92,6.15-2.76Zm46.62-6.45c-.06,.62-.11,1.05-.15,1.29h-22.98c.04,2.72,.98,4.76,2.82,6.12,1.84,1.36,4.34,2.04,7.5,2.04,1.8,0,3.73-.26,5.79-.78,2.06-.52,3.85-1.12,5.37-1.8l.48,6.06c-3.88,1.4-8.04,2.1-12.48,2.1-5.56,0-9.82-1.4-12.78-4.2-2.96-2.8-4.44-6.74-4.44-11.82,0-3.24,.64-6.09,1.92-8.55,1.28-2.46,3.14-4.36,5.58-5.7,2.44-1.34,5.34-2.01,8.7-2.01,4.6,0,8.21,1.35,10.83,4.05,2.62,2.7,3.93,6.37,3.93,11.01,0,.84-.03,1.57-.09,2.19Zm-6.99-3.57c0-2.44-.65-4.41-1.95-5.91-1.3-1.5-3.13-2.25-5.49-2.25-4.92,0-7.76,2.72-8.52,8.16h15.96Zm53.37-11.52c2.14,1.44,3.75,3.39,4.83,5.85s1.62,5.21,1.62,8.25-.53,5.59-1.59,8.01c-1.06,2.42-2.66,4.36-4.8,5.82-2.14,1.46-4.75,2.19-7.83,2.19-2.32,0-4.43-.41-6.33-1.23-1.9-.82-3.43-2.11-4.59-3.87l-.66,4.56h-6.54V0h7.56V16.86c1-1.44,2.39-2.58,4.17-3.42,1.78-.84,3.89-1.26,6.33-1.26,3.08,0,5.69,.72,7.83,2.16Zm-3.6,21.6c1.54-1.8,2.31-4.3,2.31-7.5s-.76-5.84-2.28-7.68c-1.52-1.84-3.64-2.76-6.36-2.76s-4.72,.93-6.24,2.79c-1.52,1.86-2.28,4.41-2.28,7.65s.77,5.6,2.31,7.44c1.54,1.84,3.61,2.76,6.21,2.76s4.79-.9,6.33-2.7Zm45.12-6.51c-.06,.62-.11,1.05-.15,1.29h-22.98c.04,2.72,.98,4.76,2.82,6.12,1.84,1.36,4.34,2.04,7.5,2.04,1.8,0,3.73-.26,5.79-.78,2.06-.52,3.85-1.12,5.37-1.8l.48,6.06c-3.88,1.4-8.04,2.1-12.48,2.1-5.56,0-9.82-1.4-12.78-4.2-2.96-2.8-4.44-6.74-4.44-11.82,0-3.24,.64-6.09,1.92-8.55,1.28-2.46,3.14-4.36,5.58-5.7,2.44-1.34,5.34-2.01,8.7-2.01,4.6,0,8.21,1.35,10.83,4.05,2.62,2.7,3.93,6.37,3.93,11.01,0,.84-.03,1.57-.09,2.19Zm-6.99-3.57c0-2.44-.65-4.41-1.95-5.91-1.3-1.5-3.13-2.25-5.49-2.25-4.92,0-7.76,2.72-8.52,8.16h15.96Zm21.96-13.14h10.5v5.4h-10.5v14.94c0,2.08,.41,3.49,1.23,4.23,.82,.74,2.07,1.11,3.75,1.11,1.32,0,3.14-.5,5.46-1.5l.24,6.3c-1.04,.4-2.35,.71-3.93,.93s-3.05,.33-4.41,.33c-3.16,0-5.58-.79-7.26-2.37-1.68-1.58-2.52-4.35-2.52-8.31v-15.66h-4.92v-5.4h4.92l.9-9h6.54V12.72Zm24.84,0h10.5v5.4h-10.5v14.94c0,2.08,.41,3.49,1.23,4.23,.82,.74,2.07,1.11,3.75,1.11,1.32,0,3.14-.5,5.46-1.5l.24,6.3c-1.04,.4-2.35,.71-3.93,.93s-3.05,.33-4.41,.33c-3.16,0-5.58-.79-7.26-2.37-1.68-1.58-2.52-4.35-2.52-8.31v-15.66h-4.92v-5.4h4.92l.9-9h6.54V12.72Zm44.19,16.71c-.06,.62-.11,1.05-.15,1.29h-22.98c.04,2.72,.98,4.76,2.82,6.12,1.84,1.36,4.34,2.04,7.5,2.04,1.8,0,3.73-.26,5.79-.78,2.06-.52,3.85-1.12,5.37-1.8l.48,6.06c-3.88,1.4-8.04,2.1-12.48,2.1-5.56,0-9.82-1.4-12.78-4.2-2.96-2.8-4.44-6.74-4.44-11.82,0-3.24,.64-6.09,1.92-8.55,1.28-2.46,3.14-4.36,5.58-5.7,2.44-1.34,5.34-2.01,8.7-2.01,4.6,0,8.21,1.35,10.83,4.05,2.62,2.7,3.93,6.37,3.93,11.01,0,.84-.03,1.57-.09,2.19Zm-6.99-3.57c0-2.44-.65-4.41-1.95-5.91-1.3-1.5-3.13-2.25-5.49-2.25-4.92,0-7.76,2.72-8.52,8.16h15.96Zm31.56-13.14l-.12,7.32c-.64-.16-1.48-.24-2.52-.24-2.8,0-4.9,1.05-6.3,3.15-1.4,2.1-2.1,4.71-2.1,7.83v13.14h-7.56V12.72h6.3l.6,6.72c.68-1.88,1.81-3.5,3.39-4.86,1.58-1.36,3.61-2.04,6.09-2.04,.72,0,1.46,.06,2.22,.18Z"/></svg>